<svg width="16" height="16" viewBox="0 0 16 16" fill="none" xmlns="http://www.w3.org/2000/svg">
<path d="M8 1.33333C11.676 1.33333 14.6667 4.324 14.6667 8C14.6667 11.676 11.676 14.6667 8 14.6667C4.324 14.6667 1.33333 11.676 1.33333 8C1.33333 4.324 4.324 1.33333 8 1.33333ZM8 0C3.582 0 0 3.582 0 8C0 12.418 3.582 16 8 16C12.418 16 16 12.418 16 8C16 3.582 12.418 0 8 0ZM12.3333 5.852C12.0393 5.98267 11.7227 6.07067 11.3907 6.11067C11.73 5.90733 11.9893 5.586 12.1127 5.20267C11.7953 5.39067 11.444 5.52733 11.07 5.60067C10.7713 5.28133 10.344 5.082 9.87267 5.082C8.81267 5.082 8.034 6.07067 8.27333 7.09733C6.91 7.02867 5.7 6.37533 4.89067 5.38267C4.46067 6.12 4.668 7.08533 5.39867 7.574C5.13 7.56533 4.87733 7.49133 4.656 7.36867C4.638 8.12867 5.18333 8.84 5.97267 8.99867C5.742 9.06133 5.48867 9.076 5.23133 9.02667C5.44 9.67867 6.04733 10.1527 6.76467 10.166C6.07333 10.7073 5.20467 10.9493 4.33333 10.8467C5.06 11.3127 5.922 11.584 6.84867 11.584C9.89667 11.584 11.618 9.01 11.514 6.70133C11.8353 6.47067 12.1133 6.18133 12.3333 5.852Z" fill="#3A3A3A" fill-opacity="0.88"/>
</svg>
